<svg width="561" height="100" fill="none" xmlns="http://www.w3.org/2000/svg">
  <path d="M113.68 83.9H71.698a4.844 4.844 0 01-4.844-4.844V20.927a4.844 4.844 0 014.844-4.844h30.679l16.147 16.147v46.826a4.845 4.845 0 01-4.844 4.844z" fill="#43A047"/>
  <path d="M118.524 32.23h-16.147V16.083l16.147 16.147z" fill="#C8E6C9"/>
  <path d="M102.377 32.23l16.147 16.147V32.23h-16.147z" fill="#2E7D32"/>
  <path d="M106.37 45.45c-.641-2.37-5.407-4.7-13.746-4.7-8.338 0-13.105 2.33-13.745 4.7a.54.54 0 00-.081.271v20.437c0 .09.024.174.065.249.653 2.704 6.496 4.722 13.761 4.722 7.249 0 13.083-2.01 13.758-4.704a.547.547 0 00.069-.267V45.72c0-.1-.035-.19-.081-.27zm-1.069 14.071a1.427 1.427 0 01-.143.365 1.901 1.901 0 01-.249.357 3.162 3.162 0 01-.345.347 4.538 4.538 0 01-.291.235c-.045.034-.094.066-.142.1a6.141 6.141 0 01-.399.255c-.037.023-.078.044-.117.066a9.411 9.411 0 01-.522.275l-.073.034a12.39 12.39 0 01-.656.286l-.02.008c-1.256.501-2.863.922-4.735 1.199a30.245 30.245 0 01-1.149.147c-.062.006-.128.01-.191.017-.335.035-.673.067-1.022.092-.159.012-.326.018-.488.027-.262.016-.521.033-.79.042a38.14 38.14 0 01-2.69-.002c-.269-.009-.528-.026-.79-.041-.162-.01-.33-.016-.488-.027a33.044 33.044 0 01-1.022-.092c-.063-.007-.129-.011-.191-.018-.383-.042-.757-.09-1.12-.143l-.029-.004c-1.872-.276-3.479-.698-4.735-1.199l-.02-.007a11.84 11.84 0 01-.655-.287l-.073-.034a8.845 8.845 0 01-.523-.274l-.117-.066a6.403 6.403 0 01-.399-.256c-.048-.033-.097-.066-.142-.1a4.563 4.563 0 01-.291-.235c-.05-.043-.1-.086-.144-.13a2.87 2.87 0 01-.322-.37 2.04 2.04 0 01-.207-.368 1.339 1.339 0 01-.064-.2c-.02-.088-.043-.178-.043-.266 0-.063.007-.125.017-.187a.55.55 0 00-.017-.246v-4.1l.051.042c.12.106.243.212.382.313 2.083 1.574 6.25 2.797 12.287 2.797 6.013 0 10.169-1.213 12.261-2.777a5.7 5.7 0 00.459-.375h.001v4.1a.55.55 0 00-.018.246c.011.062.018.124.018.187 0 .089-.023.178-.044.267zm.044-11.429v4.1a.55.55 0 00-.018.247c.011.062.018.124.018.186 0 .09-.023.179-.044.268a1.436 1.436 0 01-.143.365 1.911 1.911 0 01-.249.357 3.185 3.185 0 01-.345.346 4.504 4.504 0 01-.291.236c-.045.033-.094.066-.142.1a6.227 6.227 0 01-.399.255c-.037.023-.078.044-.117.066a9.48 9.48 0 01-.522.275l-.073.033c-.208.098-.425.194-.656.287l-.02.008c-1.256.5-2.863.922-4.735 1.199-.01 0-.019.002-.028.003-.364.054-.737.101-1.12.143-.063.007-.129.011-.192.018-.335.035-.673.067-1.022.092-.159.012-.326.017-.488.027-.262.016-.521.033-.79.042a38.14 38.14 0 01-2.69-.002c-.269-.009-.528-.026-.79-.041-.162-.01-.33-.016-.488-.027a33.04 33.04 0 01-1.022-.093c-.063-.006-.129-.01-.191-.017-.383-.042-.757-.09-1.12-.143l-.029-.004c-1.872-.276-3.479-.698-4.735-1.199a11.765 11.765 0 01-.676-.294c-.023-.012-.049-.023-.072-.034a8.728 8.728 0 01-.523-.274c-.039-.023-.08-.044-.117-.067a6.357 6.357 0 01-.399-.255c-.048-.034-.097-.066-.142-.1a4.563 4.563 0 01-.291-.235c-.05-.043-.1-.086-.144-.13a2.888 2.888 0 01-.322-.37 2.052 2.052 0 01-.207-.368 1.342 1.342 0 01-.064-.2c-.02-.088-.043-.178-.043-.267 0-.062.007-.124.017-.186a.55.55 0 00-.017-.246v-4.1c.067.06.142.119.214.178.04.033.077.067.12.1.165.13.344.259.538.384.04.026.086.051.128.078a9.461 9.461 0 00.719.403c.201.103.413.203.636.3l.107.048c.26.11.535.214.821.316l.243.083c.228.076.464.15.708.22.088.026.174.053.264.077.324.09.658.175 1.008.253.048.011.1.02.15.03a25.361 25.361 0 001.298.246c.313.052.636.099.968.142.085.01.166.023.252.034.412.05.838.092 1.275.129.108.009.22.015.33.023.35.025.708.046 1.074.063l.402.017c.476.016.962.028 1.465.028.504 0 .99-.012 1.466-.028l.402-.017c.366-.017.724-.038 1.074-.063.11-.008.221-.014.33-.023.437-.036.863-.08 1.274-.129.087-.01.168-.023.253-.034a29.8 29.8 0 00.968-.142 25.328 25.328 0 001.299-.246l.148-.03c.351-.078.685-.164 1.009-.253l.264-.076c.244-.071.479-.145.707-.221.082-.028.165-.055.244-.083.286-.102.562-.206.821-.316l.107-.048a11.755 11.755 0 00.839-.406c.181-.097.353-.196.516-.297.042-.026.087-.052.127-.078a6.85 6.85 0 00.54-.384c.041-.033.078-.067.119-.1.071-.06.147-.118.214-.179zm-12.72-6.237c7.496 0 12.72 2.183 12.72 4.142 0 1.96-5.224 4.143-12.72 4.143-7.497 0-12.72-2.183-12.72-4.143s5.223-4.142 12.72-4.142zm12.72 24.139a.474.474 0 00-.018.074c-.314 1.91-5.493 3.956-12.703 3.956-7.21 0-12.389-2.045-12.702-3.956a.593.593 0 00-.018-.072v-4.647l.051.042c.12.106.243.212.382.313 2.083 1.574 6.25 2.797 12.287 2.797 6.013 0 10.169-1.213 12.261-2.777a5.72 5.72 0 00.459-.375h.001v4.645z" fill="#E8F5E9" stroke="#E8F5E9" stroke-width="2" stroke-linejoin="round"/>
  <path d="M148.442 61.418c0-1.044-.434-1.839-1.301-2.385-.851-.546-2.272-1.028-4.263-1.445-1.992-.418-3.654-.948-4.987-1.59-2.922-1.413-4.384-3.46-4.384-6.142 0-2.249.948-4.128 2.843-5.637 1.895-1.51 4.303-2.265 7.226-2.265 3.116 0 5.629.771 7.54 2.313 1.927 1.542 2.891 3.54 2.891 5.998h-5.854c0-1.124-.418-2.056-1.253-2.794-.835-.755-1.943-1.132-3.324-1.132-1.285 0-2.336.297-3.155.89-.803.595-1.205 1.39-1.205 2.386 0 .899.378 1.597 1.132 2.095.755.498 2.281 1.004 4.577 1.518 2.297.498 4.095 1.1 5.396 1.806 1.317.691 2.288 1.526 2.915 2.506.642.98.963 2.168.963 3.565 0 2.344-.971 4.247-2.914 5.709-1.944 1.445-4.489 2.168-7.637 2.168-2.135 0-4.038-.386-5.709-1.156-1.67-.771-2.97-1.831-3.902-3.18-.931-1.35-1.397-2.803-1.397-4.36h5.685c.08 1.38.602 2.449 1.566 3.204.963.738 2.24 1.108 3.83 1.108 1.541 0 2.714-.29 3.517-.867.803-.595 1.204-1.366 1.204-2.313zm16.645-16.139c1.911-2.217 4.328-3.325 7.251-3.325 5.556 0 8.375 3.172 8.455 9.515V68.5h-5.854V51.686c0-1.798-.393-3.067-1.18-3.806-.771-.755-1.911-1.132-3.42-1.132-2.345 0-4.096 1.044-5.252 3.132V68.5h-5.853v-37h5.853v13.779zm33.122 23.703c-3.71 0-6.721-1.165-9.033-3.493-2.297-2.345-3.445-5.46-3.445-9.346v-.723c0-2.602.498-4.922 1.494-6.962 1.011-2.055 2.425-3.653 4.239-4.793 1.815-1.14 3.838-1.71 6.071-1.71 3.549 0 6.287 1.132 8.214 3.396 1.943 2.264 2.914 5.468 2.914 9.611v2.36h-17.03c.176 2.153.891 3.855 2.144 5.108 1.268 1.252 2.858 1.879 4.769 1.879 2.682 0 4.866-1.084 6.552-3.252l3.156 3.01c-1.044 1.558-2.441 2.77-4.191 3.638-1.735.851-3.686 1.277-5.854 1.277zm-.699-22.33c-1.605 0-2.906.562-3.902 1.686-.98 1.124-1.606 2.69-1.879 4.697h11.153v-.433c-.128-1.96-.65-3.437-1.566-4.433-.915-1.011-2.184-1.517-3.806-1.517zm27.196 22.33c-3.709 0-6.72-1.165-9.033-3.493-2.296-2.345-3.444-5.46-3.444-9.346v-.723c0-2.602.497-4.922 1.493-6.962 1.012-2.055 2.425-3.653 4.24-4.793 1.814-1.14 3.838-1.71 6.07-1.71 3.549 0 6.287 1.132 8.214 3.396 1.943 2.264 2.915 5.468 2.915 9.611v2.36H218.13c.177 2.153.891 3.855 2.144 5.108 1.269 1.252 2.859 1.879 4.77 1.879 2.681 0 4.866-1.084 6.552-3.252l3.155 3.01c-1.044 1.558-2.441 2.77-4.191 3.638-1.734.851-3.686 1.277-5.854 1.277zm-.698-22.33c-1.606 0-2.907.562-3.903 1.686-.979 1.124-1.605 2.69-1.878 4.697h11.153v-.433c-.129-1.96-.651-3.437-1.566-4.433-.916-1.011-2.184-1.517-3.806-1.517zM247.061 36.1v6.336h4.6v4.336h-4.6v14.55c0 .995.192 1.718.578 2.168.401.433 1.108.65 2.119.65a9.02 9.02 0 002.048-.24v4.528c-1.333.37-2.618.554-3.854.554-4.497 0-6.745-2.481-6.745-7.444V46.772h-4.288v-4.336h4.288v-6.335h5.854zm23.703 25.318c0-1.044-.434-1.839-1.301-2.385-.851-.546-2.272-1.028-4.264-1.445-1.991-.418-3.653-.948-4.986-1.59-2.923-1.413-4.384-3.46-4.384-6.142 0-2.249.947-4.128 2.842-5.637 1.895-1.51 4.304-2.265 7.227-2.265 3.115 0 5.628.771 7.54 2.313 1.927 1.542 2.89 3.54 2.89 5.998h-5.853c0-1.124-.418-2.056-1.253-2.794-.835-.755-1.943-1.132-3.324-1.132-1.285 0-2.337.297-3.156.89-.803.595-1.204 1.39-1.204 2.386 0 .899.377 1.597 1.132 2.095.755.498 2.28 1.004 4.577 1.518 2.296.498 4.095 1.1 5.396 1.806 1.316.691 2.288 1.526 2.914 2.506.643.98.964 2.168.964 3.565 0 2.344-.972 4.247-2.915 5.709-1.943 1.445-4.488 2.168-7.636 2.168-2.136 0-4.039-.386-5.709-1.156-1.67-.771-2.971-1.831-3.902-3.18-.932-1.35-1.397-2.803-1.397-4.36h5.684c.081 1.38.603 2.449 1.566 3.204.964.738 2.24 1.108 3.83 1.108 1.542 0 2.714-.29 3.517-.867.803-.595 1.205-1.366 1.205-2.313z" fill="#66BB6A"/>
  <path d="M293.19 55.95h-12.646v-4.722h12.646v4.722zm3.734-.675c0-4.014.931-7.234 2.794-9.66 1.863-2.44 4.36-3.66 7.492-3.66 2.762 0 4.994.963 6.696 2.89V31.5h5.854v37h-5.3l-.289-2.698c-1.75 2.12-4.087 3.18-7.01 3.18-3.051 0-5.524-1.229-7.419-3.686-1.879-2.457-2.818-5.797-2.818-10.02zm5.853.506c0 2.65.506 4.722 1.518 6.215 1.028 1.477 2.481 2.216 4.36 2.216 2.393 0 4.143-1.068 5.251-3.204V49.88c-1.076-2.088-2.81-3.132-5.203-3.132-1.895 0-3.356.755-4.384 2.264-1.028 1.494-1.542 3.75-1.542 6.77zM341.439 68.5c-.257-.498-.481-1.309-.674-2.433-1.863 1.943-4.143 2.915-6.841 2.915-2.618 0-4.754-.747-6.408-2.24-1.654-1.494-2.481-3.34-2.481-5.54 0-2.779 1.028-4.907 3.083-6.384 2.072-1.494 5.027-2.24 8.865-2.24h3.589v-1.71c0-1.35-.377-2.426-1.132-3.229-.755-.819-1.903-1.228-3.445-1.228-1.332 0-2.424.337-3.276 1.011-.851.659-1.276 1.502-1.276 2.53h-5.854c0-1.43.474-2.762 1.421-3.999.948-1.253 2.233-2.232 3.855-2.939 1.638-.706 3.46-1.06 5.468-1.06 3.051 0 5.484.771 7.298 2.313 1.815 1.525 2.747 3.677 2.795 6.456v11.755c0 2.345.329 4.215.987 5.613v.409h-5.974zm-6.431-4.216c1.156 0 2.24-.28 3.252-.843 1.028-.562 1.798-1.316 2.312-2.264v-4.914h-3.155c-2.168 0-3.798.377-4.89 1.132-1.092.755-1.638 1.823-1.638 3.204 0 1.124.369 2.023 1.108 2.698.755.658 1.758.987 3.011.987zM359.891 36.1v6.336h4.601v4.336h-4.601v14.55c0 .995.193 1.718.578 2.168.402.433 1.108.65 2.12.65a9.02 9.02 0 002.048-.24v4.528c-1.333.37-2.618.554-3.854.554-4.497 0-6.745-2.481-6.745-7.444V46.772h-4.288v-4.336h4.288v-6.335h5.853zm24.667 32.4c-.257-.498-.482-1.309-.675-2.433-1.862 1.943-4.143 2.915-6.841 2.915-2.617 0-4.753-.747-6.407-2.24-1.654-1.494-2.481-3.34-2.481-5.54 0-2.779 1.027-4.907 3.083-6.384 2.072-1.494 5.026-2.24 8.865-2.24h3.589v-1.71c0-1.35-.378-2.426-1.132-3.229-.755-.819-1.903-1.228-3.445-1.228-1.333 0-2.425.337-3.276 1.011-.851.659-1.277 1.502-1.277 2.53h-5.853c0-1.43.473-2.762 1.421-3.999.947-1.253 2.232-2.232 3.854-2.939 1.638-.706 3.461-1.06 5.468-1.06 3.051 0 5.484.771 7.299 2.313 1.815 1.525 2.746 3.677 2.794 6.456v11.755c0 2.345.329 4.215.988 5.613v.409h-5.974zm-6.432-4.216a6.587 6.587 0 003.252-.843c1.028-.562 1.799-1.316 2.313-2.264v-4.914h-3.156c-2.168 0-3.798.377-4.89 1.132-1.092.755-1.638 1.823-1.638 3.204 0 1.124.37 2.023 1.108 2.698.755.658 1.759.987 3.011.987zm40.421-8.551c0 4.047-.907 7.267-2.722 9.66-1.799 2.392-4.28 3.589-7.444 3.589-3.051 0-5.427-1.1-7.13-3.3l-.289 2.818h-5.299v-37h5.853v13.441c1.686-1.99 3.959-2.987 6.817-2.987 3.18 0 5.677 1.18 7.492 3.541 1.815 2.361 2.722 5.661 2.722 9.9v.338zm-5.854-.506c0-2.826-.497-4.946-1.493-6.36-.996-1.412-2.441-2.119-4.336-2.119-2.537 0-4.32 1.108-5.348 3.324v10.744c1.044 2.264 2.843 3.396 5.396 3.396 1.831 0 3.244-.682 4.24-2.047.995-1.365 1.509-3.429 1.541-6.191v-.747zM439.046 68.5c-.257-.498-.482-1.309-.674-2.433-1.863 1.943-4.143 2.915-6.841 2.915-2.618 0-4.754-.747-6.408-2.24-1.654-1.494-2.481-3.34-2.481-5.54 0-2.779 1.028-4.907 3.083-6.384 2.072-1.494 5.027-2.24 8.865-2.24h3.589v-1.71c0-1.35-.377-2.426-1.132-3.229-.755-.819-1.903-1.228-3.445-1.228-1.333 0-2.425.337-3.276 1.011-.851.659-1.277 1.502-1.277 2.53h-5.853c0-1.43.474-2.762 1.421-3.999.948-1.253 2.232-2.232 3.854-2.939 1.638-.706 3.461-1.06 5.468-1.06 3.052 0 5.485.771 7.299 2.313 1.815 1.525 2.746 3.677 2.795 6.456v11.755c0 2.345.329 4.215.987 5.613v.409h-5.974zm-6.431-4.216c1.156 0 2.24-.28 3.252-.843 1.027-.562 1.798-1.316 2.312-2.264v-4.914h-3.156c-2.168 0-3.798.377-4.89 1.132-1.092.755-1.638 1.823-1.638 3.204 0 1.124.37 2.023 1.109 2.698.754.658 1.758.987 3.011.987zm32.158-2.866c0-1.044-.434-1.839-1.301-2.385-.851-.546-2.272-1.028-4.264-1.445-1.991-.418-3.653-.948-4.986-1.59-2.923-1.413-4.384-3.46-4.384-6.142 0-2.249.947-4.128 2.842-5.637 1.895-1.51 4.304-2.265 7.227-2.265 3.115 0 5.629.771 7.54 2.313 1.927 1.542 2.89 3.54 2.89 5.998h-5.853c0-1.124-.418-2.056-1.253-2.794-.835-.755-1.943-1.132-3.324-1.132-1.285 0-2.337.297-3.156.89-.803.595-1.204 1.39-1.204 2.386 0 .899.377 1.597 1.132 2.095.755.498 2.28 1.004 4.577 1.518 2.296.498 4.095 1.1 5.396 1.806 1.317.691 2.288 1.526 2.914 2.506.643.98.964 2.168.964 3.565 0 2.344-.972 4.247-2.915 5.709-1.943 1.445-4.488 2.168-7.636 2.168-2.136 0-4.039-.386-5.709-1.156-1.67-.771-2.971-1.831-3.902-3.18-.932-1.35-1.397-2.803-1.397-4.36h5.685c.08 1.38.602 2.449 1.565 3.204.964.738 2.241 1.108 3.83 1.108 1.542 0 2.714-.29 3.517-.867.803-.595 1.205-1.366 1.205-2.313zm22.354 7.564c-3.71 0-6.721-1.165-9.033-3.493-2.297-2.345-3.445-5.46-3.445-9.346v-.723c0-2.602.498-4.922 1.494-6.962 1.011-2.055 2.424-3.653 4.239-4.793 1.815-1.14 3.838-1.71 6.07-1.71 3.55 0 6.288 1.132 8.215 3.396 1.943 2.264 2.914 5.468 2.914 9.611v2.36h-17.03c.176 2.153.891 3.855 2.144 5.108 1.268 1.252 2.858 1.879 4.769 1.879 2.682 0 4.866-1.084 6.552-3.252l3.156 3.01c-1.044 1.558-2.441 2.77-4.192 3.638-1.734.851-3.685 1.277-5.853 1.277zm-.699-22.33c-1.606 0-2.906.562-3.902 1.686-.98 1.124-1.606 2.69-1.879 4.697H491.8v-.433c-.128-1.96-.65-3.437-1.566-4.433-.915-1.011-2.184-1.517-3.806-1.517z" fill="#828282"/>
</svg>
